<mxfile host="app.diagrams.net" modified="2023-11-17T13:04:30.556Z" agent="Mozilla/5.0 (Windows NT 10.0; Win64; x64) AppleWebKit/537.36 (KHTML, like Gecko) Chrome/119.0.0.0 Safari/537.36" etag="BJ-V-0CC0kVdNrs0LW9M" version="22.1.2" type="github">
  <diagram name="Page-1" id="235CuYbqS3Yk4kjO_mFH">
    <mxGraphModel dx="1195" dy="650" grid="1" gridSize="10" guides="1" tooltips="1" connect="1" arrows="1" fold="1" page="1" pageScale="1" pageWidth="850" pageHeight="1100" math="0" shadow="0">
      <root>
        <mxCell id="0" />
        <mxCell id="1" parent="0" />
        <mxCell id="J86eCyzd4n_c1m5tFe6B-4" value="" style="edgeStyle=orthogonalEdgeStyle;rounded=0;orthogonalLoop=1;jettySize=auto;html=1;" edge="1" parent="1" source="J86eCyzd4n_c1m5tFe6B-1" target="J86eCyzd4n_c1m5tFe6B-2">
          <mxGeometry relative="1" as="geometry" />
        </mxCell>
        <mxCell id="J86eCyzd4n_c1m5tFe6B-1" value="пустая заявка. все не активно" style="rounded=0;whiteSpace=wrap;html=1;" vertex="1" parent="1">
          <mxGeometry x="50" y="30" width="190" height="60" as="geometry" />
        </mxCell>
        <mxCell id="J86eCyzd4n_c1m5tFe6B-7" value="" style="edgeStyle=orthogonalEdgeStyle;rounded=0;orthogonalLoop=1;jettySize=auto;html=1;" edge="1" parent="1" source="J86eCyzd4n_c1m5tFe6B-2" target="J86eCyzd4n_c1m5tFe6B-6">
          <mxGeometry relative="1" as="geometry" />
        </mxCell>
        <mxCell id="J86eCyzd4n_c1m5tFe6B-2" value="начали заполнять. &lt;br&gt;у анкеты появился параметр has_tmp_result. &lt;br&gt;&quot;Формирование заявки&quot; становится активным шагом" style="rounded=0;whiteSpace=wrap;html=1;" vertex="1" parent="1">
          <mxGeometry x="50" y="130" width="190" height="110" as="geometry" />
        </mxCell>
        <mxCell id="J86eCyzd4n_c1m5tFe6B-9" value="" style="edgeStyle=orthogonalEdgeStyle;rounded=0;orthogonalLoop=1;jettySize=auto;html=1;" edge="1" parent="1" source="J86eCyzd4n_c1m5tFe6B-6" target="J86eCyzd4n_c1m5tFe6B-8">
          <mxGeometry relative="1" as="geometry" />
        </mxCell>
        <mxCell id="J86eCyzd4n_c1m5tFe6B-6" value="&lt;b&gt;&lt;font style=&quot;font-size: 14px;&quot;&gt;awaiting&lt;/font&gt;&lt;/b&gt;&lt;br&gt;анкету заполнили. у нее появилась заявка анкета получает статус код . &lt;br&gt;Шаг переключается на этап &quot;Входной контроль&quot; под статус (ожидает обработки)" style="rounded=0;whiteSpace=wrap;html=1;" vertex="1" parent="1">
          <mxGeometry x="50" y="260" width="190" height="110" as="geometry" />
        </mxCell>
        <mxCell id="J86eCyzd4n_c1m5tFe6B-11" value="" style="edgeStyle=orthogonalEdgeStyle;rounded=0;orthogonalLoop=1;jettySize=auto;html=1;" edge="1" parent="1" source="J86eCyzd4n_c1m5tFe6B-8" target="J86eCyzd4n_c1m5tFe6B-10">
          <mxGeometry relative="1" as="geometry" />
        </mxCell>
        <mxCell id="J86eCyzd4n_c1m5tFe6B-14" style="edgeStyle=orthogonalEdgeStyle;rounded=0;orthogonalLoop=1;jettySize=auto;html=1;entryX=0;entryY=0.5;entryDx=0;entryDy=0;" edge="1" parent="1" source="J86eCyzd4n_c1m5tFe6B-8" target="J86eCyzd4n_c1m5tFe6B-12">
          <mxGeometry relative="1" as="geometry">
            <Array as="points">
              <mxPoint x="350" y="410" />
              <mxPoint x="350" y="310" />
            </Array>
          </mxGeometry>
        </mxCell>
        <mxCell id="J86eCyzd4n_c1m5tFe6B-23" style="edgeStyle=orthogonalEdgeStyle;rounded=0;orthogonalLoop=1;jettySize=auto;html=1;" edge="1" parent="1" source="J86eCyzd4n_c1m5tFe6B-8" target="J86eCyzd4n_c1m5tFe6B-19">
          <mxGeometry relative="1" as="geometry">
            <Array as="points">
              <mxPoint x="370" y="440" />
              <mxPoint x="370" y="415" />
            </Array>
          </mxGeometry>
        </mxCell>
        <mxCell id="J86eCyzd4n_c1m5tFe6B-24" style="edgeStyle=orthogonalEdgeStyle;rounded=0;orthogonalLoop=1;jettySize=auto;html=1;exitX=1;exitY=0.75;exitDx=0;exitDy=0;entryX=0;entryY=0.5;entryDx=0;entryDy=0;" edge="1" parent="1" source="J86eCyzd4n_c1m5tFe6B-8" target="J86eCyzd4n_c1m5tFe6B-18">
          <mxGeometry relative="1" as="geometry">
            <Array as="points">
              <mxPoint x="240" y="450" />
              <mxPoint x="370" y="450" />
              <mxPoint x="370" y="485" />
            </Array>
          </mxGeometry>
        </mxCell>
        <mxCell id="J86eCyzd4n_c1m5tFe6B-8" value="&lt;b&gt;&lt;font style=&quot;font-size: 14px;&quot;&gt;proccesing&lt;/font&gt;&lt;/b&gt;&lt;br&gt;анкету начали обрабатывать - падает в статус . &lt;br&gt;Этап на степере &quot;Входной контроль&quot; доп заголовок % обработанных вопросов" style="rounded=0;whiteSpace=wrap;html=1;" vertex="1" parent="1">
          <mxGeometry x="50" y="390" width="190" height="100" as="geometry" />
        </mxCell>
        <mxCell id="J86eCyzd4n_c1m5tFe6B-32" style="edgeStyle=orthogonalEdgeStyle;rounded=0;orthogonalLoop=1;jettySize=auto;html=1;exitX=1;exitY=0.25;exitDx=0;exitDy=0;entryX=0;entryY=0.25;entryDx=0;entryDy=0;" edge="1" parent="1" source="J86eCyzd4n_c1m5tFe6B-10" target="J86eCyzd4n_c1m5tFe6B-25">
          <mxGeometry relative="1" as="geometry" />
        </mxCell>
        <mxCell id="J86eCyzd4n_c1m5tFe6B-35" style="edgeStyle=orthogonalEdgeStyle;rounded=0;orthogonalLoop=1;jettySize=auto;html=1;exitX=1;exitY=0.75;exitDx=0;exitDy=0;entryX=0;entryY=0.5;entryDx=0;entryDy=0;" edge="1" parent="1" source="J86eCyzd4n_c1m5tFe6B-10" target="J86eCyzd4n_c1m5tFe6B-34">
          <mxGeometry relative="1" as="geometry">
            <mxPoint x="330" y="660" as="targetPoint" />
          </mxGeometry>
        </mxCell>
        <mxCell id="J86eCyzd4n_c1m5tFe6B-37" style="edgeStyle=orthogonalEdgeStyle;rounded=0;orthogonalLoop=1;jettySize=auto;html=1;entryX=0.5;entryY=0;entryDx=0;entryDy=0;" edge="1" parent="1" source="J86eCyzd4n_c1m5tFe6B-10" target="J86eCyzd4n_c1m5tFe6B-36">
          <mxGeometry relative="1" as="geometry" />
        </mxCell>
        <mxCell id="J86eCyzd4n_c1m5tFe6B-10" value="&lt;b&gt;&lt;font style=&quot;font-size: 14px;&quot;&gt;legal&amp;nbsp;&lt;/font&gt;&lt;/b&gt;&lt;br&gt;Оценка правоспособности Участника" style="rounded=0;whiteSpace=wrap;html=1;" vertex="1" parent="1">
          <mxGeometry x="50" y="525" width="190" height="60" as="geometry" />
        </mxCell>
        <mxCell id="J86eCyzd4n_c1m5tFe6B-16" value="" style="edgeStyle=orthogonalEdgeStyle;rounded=0;orthogonalLoop=1;jettySize=auto;html=1;" edge="1" parent="1" source="J86eCyzd4n_c1m5tFe6B-12" target="J86eCyzd4n_c1m5tFe6B-15">
          <mxGeometry relative="1" as="geometry" />
        </mxCell>
        <mxCell id="J86eCyzd4n_c1m5tFe6B-12" value="&lt;font style=&quot;font-size: 14px;&quot;&gt;&lt;b&gt;revision&lt;br&gt;&lt;/b&gt;&lt;/font&gt;Анкету отправили на доработку статус. На степере переходим на первый шаг Оформление заявки (Доработка)" style="rounded=0;whiteSpace=wrap;html=1;" vertex="1" parent="1">
          <mxGeometry x="440" y="260" width="200" height="100" as="geometry" />
        </mxCell>
        <mxCell id="J86eCyzd4n_c1m5tFe6B-17" style="edgeStyle=orthogonalEdgeStyle;rounded=0;orthogonalLoop=1;jettySize=auto;html=1;entryX=1.005;entryY=0.1;entryDx=0;entryDy=0;entryPerimeter=0;" edge="1" parent="1" target="J86eCyzd4n_c1m5tFe6B-8">
          <mxGeometry relative="1" as="geometry">
            <mxPoint x="445" y="190" as="sourcePoint" />
            <mxPoint x="280" y="370" as="targetPoint" />
            <Array as="points">
              <mxPoint x="445" y="191" />
              <mxPoint x="320" y="191" />
              <mxPoint x="320" y="400" />
            </Array>
          </mxGeometry>
        </mxCell>
        <mxCell id="J86eCyzd4n_c1m5tFe6B-15" value="&lt;b&gt;&lt;font style=&quot;font-size: 14px;&quot;&gt;reAwaiting&amp;nbsp;&lt;/font&gt;&lt;/b&gt;&lt;br&gt;после доработки анкета падает в статус Заголовок Входной контроль (ожидает повторной обработки)" style="rounded=0;whiteSpace=wrap;html=1;" vertex="1" parent="1">
          <mxGeometry x="440" y="135" width="200" height="100" as="geometry" />
        </mxCell>
        <mxCell id="J86eCyzd4n_c1m5tFe6B-18" value="&lt;font style=&quot;&quot;&gt;&lt;b style=&quot;&quot;&gt;&lt;font style=&quot;font-size: 14px;&quot;&gt;annulled&lt;br&gt;&lt;/font&gt;&lt;/b&gt;&lt;b style=&quot;border-color: var(--border-color);&quot;&gt;prev_result_status = processing&lt;br style=&quot;border-color: var(--border-color);&quot;&gt;&lt;/b&gt;заявка анулирована&lt;br&gt;&lt;/font&gt;" style="rounded=0;whiteSpace=wrap;html=1;" vertex="1" parent="1">
          <mxGeometry x="440" y="460" width="200" height="50" as="geometry" />
        </mxCell>
        <mxCell id="J86eCyzd4n_c1m5tFe6B-19" value="&lt;b style=&quot;&quot;&gt;canceled&lt;br&gt;prev_result_status = processing&lt;br&gt;&lt;/b&gt;заявка отменена" style="rounded=0;whiteSpace=wrap;html=1;" vertex="1" parent="1">
          <mxGeometry x="440" y="390" width="200" height="50" as="geometry" />
        </mxCell>
        <mxCell id="J86eCyzd4n_c1m5tFe6B-30" style="edgeStyle=orthogonalEdgeStyle;rounded=0;orthogonalLoop=1;jettySize=auto;html=1;entryX=1;entryY=0.5;entryDx=0;entryDy=0;" edge="1" parent="1" source="J86eCyzd4n_c1m5tFe6B-25" target="J86eCyzd4n_c1m5tFe6B-10">
          <mxGeometry relative="1" as="geometry" />
        </mxCell>
        <mxCell id="J86eCyzd4n_c1m5tFe6B-25" value="&lt;b&gt;&lt;font style=&quot;font-size: 14px;&quot;&gt;legalD&lt;/font&gt;&lt;/b&gt;&lt;br&gt;Оценка правоспособности Участника (доработка)" style="rounded=0;whiteSpace=wrap;html=1;" vertex="1" parent="1">
          <mxGeometry x="440" y="530" width="200" height="50" as="geometry" />
        </mxCell>
        <mxCell id="J86eCyzd4n_c1m5tFe6B-34" value="&lt;font style=&quot;&quot;&gt;&lt;b style=&quot;&quot;&gt;&lt;font style=&quot;font-size: 14px;&quot;&gt;annulled&lt;br&gt;&lt;/font&gt;&lt;/b&gt;&lt;b style=&quot;border-color: var(--border-color);&quot;&gt;prev_result_status =&amp;nbsp;&lt;b style=&quot;border-color: var(--border-color);&quot;&gt;&lt;font style=&quot;border-color: var(--border-color); font-size: 14px;&quot;&gt;legal&amp;nbsp;&lt;/font&gt;&lt;/b&gt;&lt;br style=&quot;border-color: var(--border-color);&quot;&gt;&lt;/b&gt;заявка анулирована&lt;br&gt;&lt;/font&gt;" style="rounded=0;whiteSpace=wrap;html=1;" vertex="1" parent="1">
          <mxGeometry x="440" y="600" width="200" height="50" as="geometry" />
        </mxCell>
        <mxCell id="J86eCyzd4n_c1m5tFe6B-36" value="&lt;b&gt;&lt;font style=&quot;font-size: 14px;&quot;&gt;evaluation&lt;/font&gt;&lt;/b&gt;&lt;br&gt;Оценка заявки экспертами" style="rounded=0;whiteSpace=wrap;html=1;" vertex="1" parent="1">
          <mxGeometry x="50" y="640" width="190" height="60" as="geometry" />
        </mxCell>
      </root>
    </mxGraphModel>
  </diagram>
</mxfile>
